# xmcd
# 
# Track frame offsets:
#     150
#     25382
#     39232
#     51902
#     64657
#     87405
#     97142
#     115015
#     127725
#     141130
#     151790
#     168822
#     181245
#     191505
#     206352
# 
# Disc length: 2924
# 
# Revision: 5
# Processed by: cddbd v1.5.2PL0 Copyright (c) Steve Scherf et al.
# Submitted via: fre:ac v1.0.31
# 
DISCID=bd0b6a0f
DTITLE=Various Artist - Blues Story #5 - Le Rock 'n Roll Noir and Le Rhythm 'n Blues
DYEAR=1998
DGENRE=Blues
TTITLE0=Albert King - Red House
TTITLE1=Bo Diddley - Before You Accuse Me
TTITLE2=Howlin'Wolf - Back Door Man
TTITLE3=Muddy Waters - Got My Mojo Working
TTITLE4=Lucky Peterson - Spankin' Leroy
TTITLE5=Chuck Berry - Worried Life Blues
TTITLE6=Robert Cray - Forecast (Calls For Pain)
TTITLE7=Eddy Clearwater - Poison Ivy
TTITLE8=T. Bone Walker - T. Bone Shuffle
TTITLE9=Little Richard - Tutti Frutti
TTITLE10=Fats Domino - Shake, Rattle and Roll (Live)
TTITLE11=Ike and Tina Turner - Rock Me Baby
TTITLE12=Louis Jordan - Choo-Choo-ch' Boogie
TTITLE13=Lionel Hampton - Hamp's Boogie Woogie
TTITLE14=Doctor Ross - Chicago Breakdown
EXTD=YEAR: 1998
EXTT0=
EXTT1=
EXTT2=
EXTT3=
EXTT4=
EXTT5=
EXTT6=
EXTT7=
EXTT8=
EXTT9=
EXTT10=
EXTT11=
EXTT12=
EXTT13=
EXTT14=
PLAYORDER=
